# xmcd
#
# Track frame offsets: 
#        150
#        23790
#        51245
#        91057
#        116265
#        143187
#        176367
#        207917
#        248487
#        270795
#        293712
#        310887
#
# Disc length: 4605 seconds
#
# Revision: 2
# Processed by: cddbd v1.5.2PL0 Copyright (c) Steve Scherf et al.
# Submitted via: ExactAudioCopy v0.99pb4
#
DISCID=9611fb0c
DTITLE=Various Artist - Club Epic Vol. 2
DYEAR=1992
DGENRE=Dance
TTITLE0=Isley Brothers - It's A Disco Night (Parts 1 And 2)
TTITLE1=O'Jays - I Love Music
TTITLE2=Shalamar - Uptown Festival
TTITLE3=Carrie Lucas - Dance With You
TTITLE4=Gloria Estefan And Miami Sound Machine - Conga
TTITLE5=Dynasty - I Don't Want To Be A Freak (But I Can't Help Myself)
TTITLE6=McFadden And Whitehead - Ain't No Stoppin' Us Now
TTITLE7=Dan Hartman And Loleatta Holloway - Vertigo Relight My Fire
TTITLE8=Nicole - Don't You Want My Love
TTITLE9=Melba Moore - You Stepped Into My Life
TTITLE10=Sly And The Family Stone - Family Affair
TTITLE11=Angela Clemmons - Give Me Just A Little More Time
EXTD=
EXTT0=
EXTT1=
EXTT2=
EXTT3=
EXTT4=
EXTT5=
EXTT6=
EXTT7=
EXTT8=
EXTT9=
EXTT10=
EXTT11=
PLAYORDER=
